# xmcd CD database file
#
# Track frame offsets:
#	150
#	19050
#	44175
#	62476
#	80626
#	95926
#	116177
#	131851
#	148727
#	171078
#	184278
#	209778
#
# Disc length: 3186 seconds
#
# Revision: 0
# Processed by: cddbd v1.5.2PL0 Copyright (c) Steve Scherf et al.
# Submitted via: CDex 1.51
#
DISCID=c60c700c
DTITLE=EDDIE HIGGINS TRIO - CHRISTMAS SONGS II
DYEAR=2006
DGENRE=Jazz
TTITLE0=Joy To The World
TTITLE1=The First Noel
TTITLE2=It Came Upon A Midnight Clear
TTITLE3=O Come, O Come, Emmanuel
TTITLE4=Good King Wenceslas
TTITLE5=Good King Of Orient Are
TTITLE6=We Wish You A Merry Christmas
TTITLE7=Hark! The Herald Angels Sing
TTITLE8=Winter Dreams
TTITLE9=The Little Drummer Boy
TTITLE10=Silent Night
TTITLE11=Jingle Bells
EXTD=YEAR: 2006
EXTT0=
EXTT1=
EXTT2=
EXTT3=
EXTT4=
EXTT5=
EXTT6=
EXTT7=
EXTT8=
EXTT9=
EXTT10=
EXTT11=
PLAYORDER=
